TITLE ""
FILE "Disc3Track06.mp3" MP3
  TRACK 01 AUDIO
    TITLE "Disc3Track06_01"
    INDEX 01 00:00:00
  TRACK 02 AUDIO
    TITLE "Disc3Track06_02"
    INDEX 01 00:03:44
  TRACK 03 AUDIO
    TITLE "Disc3Track06_03"
    INDEX 01 00:03:62
  TRACK 04 AUDIO
    TITLE "Disc3Track06_04"
    INDEX 01 00:05:15
  TRACK 05 AUDIO
    TITLE "Disc3Track06_05"
    INDEX 01 00:07:26
  TRACK 06 AUDIO
    TITLE "Disc3Track06_06"
    INDEX 01 00:08:55
  TRACK 07 AUDIO
    TITLE "Disc3Track06_07"
    INDEX 01 00:14:34
  TRACK 08 AUDIO
    TITLE "Disc3Track06_08"
    INDEX 01 00:14:65
  TRACK 09 AUDIO
    TITLE "Disc3Track06_09"
    INDEX 01 00:16:11
  TRACK 10 AUDIO
    TITLE "Disc3Track06_10"
    INDEX 01 00:18:51
  TRACK 11 AUDIO
    TITLE "Disc3Track06_11"
    INDEX 01 00:19:72
  TRACK 12 AUDIO
    TITLE "Disc3Track06_12"
    INDEX 01 00:24:50
  TRACK 13 AUDIO
    TITLE "Disc3Track06_13"
    INDEX 01 00:25:06
  TRACK 14 AUDIO
    TITLE "Disc3Track06_14"
    INDEX 01 00:26:33
  TRACK 15 AUDIO
    TITLE "Disc3Track06_15"
    INDEX 01 00:28:05
  TRACK 16 AUDIO
    TITLE "Disc3Track06_16"
    INDEX 01 00:29:34
  TRACK 17 AUDIO
    TITLE "Disc3Track06_17"
    INDEX 01 00:29:71
  TRACK 18 AUDIO
    TITLE "Disc3Track06_18"
    INDEX 01 00:31:19
  TRACK 19 AUDIO
    TITLE "Disc3Track06_19"
    INDEX 01 00:33:16
  TRACK 20 AUDIO
    TITLE "Disc3Track06_20"
    INDEX 01 00:34:37
  TRACK 21 AUDIO
    TITLE "Disc3Track06_21"
    INDEX 01 00:40:02
  TRACK 22 AUDIO
    TITLE "Disc3Track06_22"
    INDEX 01 00:40:35
  TRACK 23 AUDIO
    TITLE "Disc3Track06_23"
    INDEX 01 00:41:66
  TRACK 24 AUDIO
    TITLE "Disc3Track06_24"
    INDEX 01 00:44:17
  TRACK 25 AUDIO
    TITLE "Disc3Track06_25"
    INDEX 01 00:45:50
  TRACK 26 AUDIO
    TITLE "Disc3Track06_26"
    INDEX 01 00:46:10
  TRACK 27 AUDIO
    TITLE "Disc3Track06_27"
    INDEX 01 00:47:41
  TRACK 28 AUDIO
    TITLE "Disc3Track06_28"
    INDEX 01 00:49:40
  TRACK 29 AUDIO
    TITLE "Disc3Track06_29"
    INDEX 01 00:50:73
  TRACK 30 AUDIO
    TITLE "Disc3Track06_30"
    INDEX 01 00:51:35
  TRACK 31 AUDIO
    TITLE "Disc3Track06_31"
    INDEX 01 00:53:57
  TRACK 32 AUDIO
    TITLE "Disc3Track06_32"
    INDEX 01 00:56:56
  TRACK 33 AUDIO
    TITLE "Disc3Track06_33"
    INDEX 01 00:58:72
  TRACK 34 AUDIO
    TITLE "Disc3Track06_34"
    INDEX 01 01:03:27
  TRACK 35 AUDIO
    TITLE "Disc3Track06_35"
    INDEX 01 01:03:60
  TRACK 36 AUDIO
    TITLE "Disc3Track06_36"
    INDEX 01 01:05:18
  TRACK 37 AUDIO
    TITLE "Disc3Track06_37"
    INDEX 01 01:06:35
  TRACK 38 AUDIO
    TITLE "Disc3Track06_38"
    INDEX 01 01:07:69
  TRACK 39 AUDIO
    TITLE "Disc3Track06_39"
    INDEX 01 01:08:28
  TRACK 40 AUDIO
    TITLE "Disc3Track06_40"
    INDEX 01 01:09:58
  TRACK 41 AUDIO
    TITLE "Disc3Track06_41"
    INDEX 01 01:10:56
  TRACK 42 AUDIO
    TITLE "Disc3Track06_42"
    INDEX 01 01:12:12
  TRACK 43 AUDIO
    TITLE "Disc3Track06_43"
    INDEX 01 01:12:47
  TRACK 44 AUDIO
    TITLE "Disc3Track06_44"
    INDEX 01 01:14:01
  TRACK 45 AUDIO
    TITLE "Disc3Track06_45"
    INDEX 01 01:17:72
  TRACK 46 AUDIO
    TITLE "Disc3Track06_46"
    INDEX 01 01:19:27
  TRACK 47 AUDIO
    TITLE "Disc3Track06_47"
    INDEX 01 01:25:28
  TRACK 48 AUDIO
    TITLE "Disc3Track06_48"
    INDEX 01 01:25:59
  TRACK 49 AUDIO
    TITLE "Disc3Track06_49"
    INDEX 01 01:27:25
  TRACK 50 AUDIO
    TITLE "Disc3Track06_50"
    INDEX 01 01:29:20
  TRACK 51 AUDIO
    TITLE "Disc3Track06_51"
    INDEX 01 01:30:66
  TRACK 52 AUDIO
    TITLE "Disc3Track06_52"
    INDEX 01 01:31:25
  TRACK 53 AUDIO
    TITLE "Disc3Track06_53"
    INDEX 01 01:32:50
  TRACK 54 AUDIO
    TITLE "Disc3Track06_54"
    INDEX 01 01:35:19
  TRACK 55 AUDIO
    TITLE "Disc3Track06_55"
    INDEX 01 01:36:48
  TRACK 56 AUDIO
    TITLE "Disc3Track06_56"
    INDEX 01 01:37:06
  TRACK 57 AUDIO
    TITLE "Disc3Track06_57"
    INDEX 01 01:38:43
  TRACK 58 AUDIO
    TITLE "Disc3Track06_58"
    INDEX 01 01:40:69
  TRACK 59 AUDIO
    TITLE "Disc3Track06_59"
    INDEX 01 01:42:25
  TRACK 60 AUDIO
    TITLE "Disc3Track06_60"
    INDEX 01 01:44:53
  TRACK 61 AUDIO
    TITLE "Disc3Track06_61"
    INDEX 01 01:45:09
  TRACK 62 AUDIO
    TITLE "Disc3Track06_62"
    INDEX 01 01:46:46
  TRACK 63 AUDIO
    TITLE "Disc3Track06_63"
    INDEX 01 01:47:39
  TRACK 64 AUDIO
    TITLE "Disc3Track06_64"
    INDEX 01 01:48:74
  TRACK 65 AUDIO
    TITLE "Disc3Track06_65"
    INDEX 01 01:51:08
